PathFileType	4	(X/Y/Z)	C:/Users/opensim2020/Desktop/walking_exp_matlab/subject02_walking15_straight_01.trc	
DataRate	CameraRate	NumFrames	NumMarkers	Units	OrigDataRate	OrigDataStartFrame	OrigNumFrames	
100.00	100.00	8	42	mm	100.00	449	165	
Frame#	Time	LFHD			RFHD			LBHD			RBHD			C7			T10			CLAV			STRN			RBAK			LSHO			LUPA			LELB			LFRM			LWRA			LWRB			LFIN			RSHO			RUPA			RELB			RFRM			RWRA			RWRB			RFIN			LASI			RASI			LPSI			RPSI			LTHI			LKNE			LTIB			LANK			LHEE			LTOE			RTHI			RKNE			RTIB			RANK			RHEE			RTOE			*39			*40			*41			
		X1	Y1	Z1	X2	Y2	Z2	X3	Y3	Z3	X4	Y4	Z4	X5	Y5	Z5	X6	Y6	Z6	X7	Y7	Z7	X8	Y8	Z8	X9	Y9	Z9	X10	Y10	Z10	X11	Y11	Z11	X12	Y12	Z12	X13	Y13	Z13	X14	Y14	Z14	X15	Y15	Z15	X16	Y16	Z16	X17	Y17	Z17	X18	Y18	Z18	X19	Y19	Z19	X20	Y20	Z20	X21	Y21	Z21	X22	Y22	Z22	X23	Y23	Z23	X24	Y24	Z24	X25	Y25	Z25	X26	Y26	Z26	X27	Y27	Z27	X28	Y28	Z28	X29	Y29	Z29	X30	Y30	Z30	X31	Y31	Z31	X32	Y32	Z32	X33	Y33	Z33	X34	Y34	Z34	X35	Y35	Z35	X36	Y36	Z36	X37	Y37	Z37	X38	Y38	Z38	X39	Y39	Z39	X40	Y40	Z40	X41	Y41	Z41	X42	Y42	Z42	

62	0.610	1512.26880	-562.43988	1741.68250	1655.80713	-566.24683	1723.26758	1500.58386	-691.38739	1666.57837	1641.78503	-708.59961	1646.45728	1571.50635	-747.71973	1525.07922	1570.08423	-800.74609	1249.95691	1556.74475	-610.04199	1457.58948	1561.38354	-557.66858	1285.15674	1630.55249	-807.50177	1348.86462	1389.47620	-682.19092	1501.99500	1305.95532	-711.24969	1301.78943	1294.64563	-730.12445	1162.50720	1278.28015	-734.84369	1032.14124	1302.75732	-692.00317	900.49695	1271.75391	-737.71973	909.65948	1264.02319	-727.09937	844.90546	1755.15247	-674.45526	1488.83716	1837.34741	-709.45477	1300.66724	1861.42542	-693.34058	1155.19141	1880.35266	-646.74542	1043.10254	1859.94458	-575.98358	928.02655	1890.48352	-621.51678	915.10565	1893.95886	-572.23468	861.92700	1423.84424	-586.25366	987.07520	1680.37695	-582.26886	969.12292	1506.65442	-790.20343	1038.17847	1621.43323	-792.89642	1034.35693	1388.17993	-635.78235	669.17932	1435.54675	-655.13947	469.99142	1450.99890	-711.13904	282.56046	1504.90198	-708.56042	63.90612	1559.44653	-742.40247	37.25298	1483.47424	-555.79382	33.39596	1757.36877	-617.25244	670.05078	1740.22742	-594.86078	472.44064	1739.90967	-735.37476	357.11325	1705.01416	-868.12958	219.31793	1642.61487	-919.99976	192.96683	1740.30273	-798.18024	79.22359	1599.67944	-666.14459	1806.85962	-3356.81812	2846.13550	1034.22192			 
63	0.620	1512.12146	-549.95062	1742.16870	1655.69141	-553.89758	1723.71130	1500.36133	-678.95581	1667.15662	1641.46533	-696.36487	1647.13965	1570.78076	-735.54034	1525.77209	1568.93738	-789.52844	1250.99341	1556.68335	-598.23975	1458.13562	1560.88550	-546.46765	1285.43115	1629.41174	-796.18927	1349.82312	1389.32434	-669.14429	1503.20154	1305.08716	-692.84497	1302.84070	1293.22156	-707.78302	1162.47461	1277.40503	-708.69501	1031.93787	1305.82788	-661.32379	902.23145	1272.73792	-705.56299	909.07349	1265.87097	-692.09991	844.97009	1754.68530	-663.21436	1489.43848	1836.59583	-699.67761	1301.56763	1860.25293	-685.57532	1155.93652	1879.77930	-641.13751	1043.17310	1859.94568	-572.58026	926.59351	1890.31152	-618.33289	914.68866	1894.18396	-570.14386	860.51080	1423.15222	-576.43823	987.53827	1679.14844	-570.91504	971.76239	1506.19019	-779.32111	1038.75464	1621.07556	-781.87976	1035.40063	1388.37927	-630.59576	668.88226	1435.75391	-651.87982	469.88638	1451.39697	-709.83099	282.96442	1505.18872	-708.33893	64.09556	1559.63342	-742.29883	37.54410	1483.54211	-555.31793	32.96320	1757.16626	-599.89886	672.94495	1738.99170	-571.84503	475.99863	1739.60217	-708.39081	355.68988	1705.46191	-836.03601	212.58104	1643.79285	-887.77142	183.84315	1739.97742	-759.20319	76.56809	1599.37439	-653.77216	1807.48792	-3356.99927	2846.06396	1034.27930			 
64	0.630	1511.98486	-537.44525	1742.45667	1655.57153	-541.53033	1723.95581	1500.14392	-666.51099	1667.66382	1640.94153	-684.22040	1647.51025	1570.27527	-723.72217	1526.61426	1567.91919	-778.31433	1251.85059	1556.60559	-586.39081	1458.58215	1560.47363	-535.13977	1285.61694	1628.44531	-784.95868	1350.71936	1389.14209	-656.26080	1504.17371	1304.24072	-674.04449	1303.47595	1291.77551	-685.65686	1162.75012	1277.53198	-680.90399	1032.00598	1309.23059	-630.13281	904.41779	1273.60352	-673.65814	909.27234	1267.94397	-656.99518	845.84479	1754.27844	-651.98309	1489.99377	1836.10339	-690.01184	1302.34631	1859.30725	-677.89325	1156.54382	1879.32520	-635.53296	1043.16345	1860.31885	-568.62946	925.32922	1890.21057	-615.13513	914.27991	1894.48999	-568.06403	859.06519	1422.36487	-566.42133	987.82379	1677.31567	-559.81036	973.87909	1506.05945	-768.52875	1039.16968	1621.07788	-770.77283	1036.28931	1389.12854	-624.77417	668.36743	1435.93054	-648.49036	469.76636	1451.65454	-707.99567	283.18552	1505.26257	-708.50952	64.41936	1560.15356	-741.40051	36.98947	1483.64380	-554.72522	32.52196	1757.07581	-582.83380	675.74487	1737.85120	-549.45477	479.40189	1739.52490	-681.31812	353.55667	1706.11829	-803.13416	204.99619	1645.03870	-854.48450	173.78232	1739.43530	-719.30627	73.10650	1599.10706	-641.12549	1807.81409	-3357.04663	2845.91382	1034.42407			 
65	0.640	1512.00269	-524.75116	1742.41040	1655.54163	-529.09088	1723.93896	1499.89160	-653.98572	1668.07007	1640.66418	-671.96301	1647.85559	1569.72156	-711.62775	1527.14465	1567.02454	-766.94910	1252.54333	1556.51501	-574.51575	1458.81287	1559.94873	-523.86920	1285.57935	1627.40393	-773.38556	1351.22705	1389.00549	-643.53052	1505.14172	1303.60608	-656.25574	1304.49316	1290.45935	-663.15045	1162.98865	1277.18384	-653.59814	1032.39465	1312.23169	-599.36371	907.25787	1274.85596	-641.11499	909.98535	1270.30347	-621.81677	847.24243	1753.78137	-640.69751	1490.12439	1835.55310	-680.44904	1302.95276	1858.41699	-670.34753	1157.13708	1878.96387	-629.94574	1043.04590	1860.62292	-564.99805	923.98260	1890.13428	-611.84845	913.83044	1894.88293	-565.88318	857.79956	1421.63184	-556.48926	988.00311	1676.21680	-547.09772	976.33484	1506.10730	-757.77081	1039.47974	1621.32605	-759.64453	1037.05225	1389.55286	-619.31427	668.30347	1436.21802	-644.92975	469.49240	1451.65784	-706.11224	283.60208	1505.45569	-708.22925	64.60625	1560.09424	-741.85944	37.83492	1483.70508	-554.24402	32.19152	1757.04700	-565.95917	678.42029	1737.06433	-527.25031	482.57294	1739.58923	-654.06555	350.67181	1706.81335	-769.44751	196.70126	1646.57617	-819.79987	162.53343	1738.89490	-678.29016	69.63016	1599.19043	-628.32239	1808.19165	-3356.99390	2846.00049	1034.21350			 
66	0.650	1512.22131	-511.92249	1742.58105	1655.53564	-516.63098	1723.74939	1499.68140	-641.36896	1668.21692	1640.69470	-659.54437	1648.07202	1569.06726	-699.37451	1527.40491	1566.23511	-755.54932	1253.04382	1556.32849	-562.68237	1458.88086	1559.57361	-512.30707	1285.55176	1626.65869	-762.10150	1351.93970	1388.78760	-630.81287	1505.63245	1302.82715	-638.14197	1305.30042	1288.99158	-641.36981	1163.46082	1276.97693	-626.70135	1032.79846	1314.95471	-568.82611	910.05035	1276.09436	-609.08813	911.17566	1272.72058	-586.61646	849.56683	1753.35693	-629.23602	1490.04602	1835.11133	-671.01276	1303.48083	1857.67517	-662.64929	1157.54895	1878.73279	-624.37152	1042.86963	1860.83276	-561.39075	922.46240	1890.07532	-608.59924	913.31848	1895.18237	-563.68372	856.45032	1420.57422	-546.53937	987.79993	1674.46240	-535.10022	977.86639	1506.41980	-747.02887	1039.65295	1621.74573	-748.43396	1037.65869	1390.32043	-612.83496	667.75134	1436.49524	-641.31860	469.20282	1451.69141	-703.81580	283.78055	1505.63196	-707.93610	64.77518	1559.98718	-742.21674	38.45574	1483.74316	-553.87604	31.86185	1757.04395	-549.22467	680.91406	1736.05957	-506.09570	485.42456	1739.94336	-626.87506	347.15045	1707.60486	-735.04901	187.91071	1647.65112	-784.67438	151.08188	1738.11511	-636.56989	65.96326	1598.90649	-615.74402	1808.09290	-3356.95459	2846.04663	1034.21631			 
67	0.660	1512.03125	-499.33347	1742.06909	1655.53662	-504.15842	1723.31396	1499.48169	-628.77625	1668.21521	1640.41626	-647.21692	1648.03003	1568.52625	-687.17017	1527.64514	1565.72241	-744.24146	1253.46313	1556.21289	-550.70728	1458.75220	1558.87500	-501.05850	1285.21680	1625.95325	-750.54877	1352.33020	1388.61487	-618.23090	1506.02856	1302.03137	-621.31531	1306.25781	1287.29846	-620.17303	1164.01697	1276.77393	-599.85706	1033.99121	1317.86938	-537.98370	914.07123	1277.54590	-576.87775	912.97656	1275.15735	-551.79327	852.59747	1753.05420	-617.52979	1489.89893	1834.38013	-661.88586	1303.62146	1857.03821	-655.00824	1157.81250	1878.46985	-618.67834	1042.37903	1861.21765	-557.71649	921.08319	1890.08093	-605.25696	912.76251	1895.57849	-561.43134	855.07007	1419.61377	-536.62366	987.41003	1672.44470	-523.39075	978.72449	1506.92114	-736.32068	1039.67993	1622.35461	-737.05450	1038.12366	1390.69006	-606.39539	667.24146	1436.82043	-637.59357	468.92328	1451.86511	-701.17950	283.80319	1505.82532	-707.61804	64.99570	1560.66333	-741.48987	38.42002	1483.73547	-553.64551	31.62635	1757.00269	-532.61737	683.18750	1735.19165	-485.54181	487.73526	1740.25000	-599.60803	343.03006	1708.36121	-699.71295	178.35239	1648.97485	-748.18768	138.90306	1737.40198	-593.99963	62.65931	1599.02319	-602.84436	1808.14490	-3357.05615	2846.03247	1034.30969			 
68	0.670	1512.13245	-486.55353	1741.62256	1655.52295	-491.66025	1722.67761	1499.27686	-616.20258	1668.15588	1640.20667	-634.84998	1647.75684	1568.03955	-674.95563	1527.65881	1565.35522	-732.74390	1253.58850	1555.92834	-538.76624	1458.39368	1558.17761	-489.56430	1284.73279	1625.36353	-738.94672	1352.49963	1388.41174	-605.64032	1506.19006	1300.84839	-604.42078	1307.09778	1285.91467	-598.56799	1164.63611	1276.94592	-572.64801	1035.27136	1320.70959	-507.45493	918.32172	1279.04272	-544.87128	915.46411	1277.95142	-516.70435	856.20538	1752.69263	-605.87897	1489.60803	1833.99329	-652.32990	1304.00195	1856.50806	-647.25708	1157.94214	1878.38184	-613.03632	1042.05383	1861.66028	-553.90222	919.55426	1890.18762	-601.78119	912.11609	1896.03320	-559.00995	853.71649	1418.73267	-526.94733	986.72491	1670.97034	-510.85910	979.52209	1507.69067	-725.64905	1039.62268	1623.23279	-725.57678	1038.45947	1390.98877	-600.05743	666.75201	1437.15503	-633.84247	468.55869	1452.08459	-699.30621	284.26611	1506.05432	-707.31097	65.23004	1560.62878	-741.25024	38.35485	1483.70557	-553.39093	31.46116	1756.98450	-516.51532	685.02380	1734.25610	-465.85440	489.78180	1740.59326	-572.32495	338.47812	1709.24524	-663.65674	168.58804	1650.43066	-710.60083	126.36214	1736.71167	-550.73077	59.67772	1598.86621	-590.13190	1807.66101	-3360.36060	2845.32349	1034.28223			 
69	0.680	1512.12878	-473.80365	1741.00757	1655.63965	-479.01642	1721.86914	1499.07068	-603.55701	1667.84546	1639.59070	-622.61725	1647.23169	1567.58398	-662.73395	1527.52649	1565.18091	-721.28137	1253.65112	1555.71729	-526.74200	1457.88196	1557.55042	-477.99451	1284.09631	1624.45361	-727.17090	1352.18396	1388.18799	-593.07837	1506.11047	1300.16150	-587.44647	1307.96790	1284.53516	-577.32635	1165.33093	1276.90381	-545.95502	1036.73828	1323.47913	-477.09839	923.37897	1280.71692	-513.39319	918.34430	1280.67505	-482.39362	860.66644	1752.34888	-594.13318	1488.94141	1833.46008	-642.95270	1303.98706	1856.16187	-639.35968	1157.91663	1878.51660	-607.08936	1041.69788	1861.88989	-550.25769	918.02179	1890.39661	-598.24805	911.42853	1896.48889	-556.51282	852.30078	1417.87451	-517.15430	985.78082	1668.75415	-499.45996	979.23035	1508.59851	-714.88025	1039.43457	1624.22827	-713.86548	1038.61792	1391.30457	-593.43793	666.15527	1437.46802	-630.05341	468.30835	1452.50244	-697.46808	284.68091	1506.29932	-707.10132	65.49863	1561.09338	-740.93115	38.87890	1483.60229	-553.23816	31.29288	1757.19873	-499.60690	687.44891	1733.24414	-447.25485	491.22943	1740.93164	-545.08655	333.66687	1710.26233	-626.84351	158.89894	1652.03748	-671.98322	113.60152	1736.03235	-507.03906	57.22392	1599.01794	-577.19153	1807.28589	-3360.34082	2845.29907	1034.38037			 
